<svg width="65" height="68" viewBox="0 0 65 68" xmlns="http://www.w3.org/2000/svg"><title>Page 1</title><g fill="none" fill-rule="evenodd"><path fill="#B3B3B3" d="M31.948 0L0 11.243 5.05 53.1 31.98 67.903 59.054 52.9 64.1 11.044"/><path fill="#A6120D" d="M60.914 13.463L31.874 3.56v60.807l24.337-13.47"/><path fill="#DD1B16" d="M3.585 13.642L7.91 51.076l23.963 13.29V3.56"/><path d="M39.095 34.048l-7.17-14.19-5.878 13.946h5.826l7.222.244zm.772 1.882l-7.994 3.738h-8.425l-3.96 9.907-7.367.136L31.874 5.77l7.994 30.162z" fill="#F2F2F2"/><path fill="#B3B3B3" d="M31.873 5.768l.053 14.09 6.672 13.957h-6.71l-.015 5.844 9.278.008 4.337 10.045 7.05.13"/></g></svg>