<svg width="60" height="60" viewBox="0 0 60 60" xmlns="http://www.w3.org/2000/svg"><title>bootstrap</title><defs><linearGradient x1="3.331%" y1="86.076%" x2="89.663%" y2="19.34%" id="a"><stop stop-color="#101034" offset="0%"/><stop stop-color="#612D50" offset="100%"/></linearGradient></defs><g fill="none" fill-rule="evenodd"><path d="M60 51.94c0 4.45-3.61 8.06-8.06 8.06H8.06C3.61 60 0 56.39 0 51.94V8.06C0 3.61 3.61 0 8.06 0h43.88C56.39 0 60 3.61 60 8.06v43.88z" fill="url(#a)"/><path d="M14.428 11.214h17.52c9.918 0 12.06 7.05 12.06 9.833 0 5.63-3.19 7.07-4.785 7.715 2.42.684 6.35 2.75 6.35 9.908 0 2.047-.26 10.115-13.17 10.115H14.427v-37.57zM24.126 25.9h5.333c3.946 0 4.344-2.587 4.344-3.827 0-1.148-.718-3.663-4.276-3.663h-5.402v7.49zm0 16.323h6.115c5.086 0 5.382-3.578 5.382-4.835 0-1.168-.438-4.778-5.404-4.778h-6.092v9.613z" fill="#FFF"/></g></svg>