<svg width="60" height="60" viewBox="0 0 60 60" xmlns="http://www.w3.org/2000/svg"><title>git</title><path d="M58.868 27.328L32.672 1.133c-1.508-1.51-3.955-1.51-5.465 0l-5.44 5.44 6.9 6.9c1.604-.54 3.443-.178 4.72 1.1 1.287 1.287 1.647 3.142 1.092 4.75l6.65 6.65c1.61-.554 3.465-.195 4.75 1.092 1.796 1.795 1.796 4.705 0 6.502-1.797 1.797-4.706 1.797-6.504 0-1.35-1.352-1.685-3.336-1-5l-6.203-6.203v16.322c.437.217.85.506 1.215.87 1.796 1.795 1.796 4.704 0 6.503-1.795 1.794-4.707 1.794-6.5 0-1.797-1.8-1.797-4.71 0-6.505.443-.443.957-.778 1.505-1.003V22.08c-.548-.225-1.06-.558-1.506-1.004-1.36-1.36-1.687-3.356-.99-5.027l-6.802-6.804-17.963 17.96c-1.51 1.51-1.51 3.958 0 5.467L27.33 58.868c1.507 1.51 3.953 1.51 5.464 0l26.074-26.074c1.51-1.51 1.51-3.957 0-5.466z" fill="#F42534" fill-rule="evenodd"/></svg>