<svg width="60" height="60" viewBox="0 0 60 60" xmlns="http://www.w3.org/2000/svg"><title>htmlcss</title><defs><linearGradient x1="50%" y1="100%" x2="50%" y2="0%" id="a"><stop stop-color="#D0D2D3" stop-opacity="0" offset="38.65%"/><stop stop-color="#D0D2D3" offset="100%"/></linearGradient><linearGradient x1="0%" y1="50%" y2="50%" id="b"><stop stop-color="#E7E6E5" offset="0%"/><stop stop-color="#FFF" offset="100%"/></linearGradient><linearGradient x1="0%" y1="50%" y2="50%" id="c"><stop stop-color="#E7E6E5" offset="0%"/><stop stop-color="#FFF" offset="100%"/></linearGradient></defs><g fill="none" fill-rule="evenodd"><path fill="#1F62AE" d="M55.984 55.347l-17.4 4.685-17.4-4.685-4.016-43.5H60"/><path fill="#3C9BD5" d="M38.583 15.37v40.925l.04.01 14.08-3.79 3.25-37.146"/><path fill="#FFF" d="M38.568 26.246l-12.454 5.187.413 5.135 12.04-5.148 12.81-5.476.53-5.253"/><path fill="url(#a)" d="M1.153 10.808l.413 5.135 12.04-5.148V5.62" transform="translate(24.96 20.625)"/><path fill="url(#b)" d="M1.172 10.808l.413 5.135 18.476.06-.413 6.846-6.08 1.71-5.843-1.475-.354-4.25H1.94l.708 8.205 10.98 3.247L24.545 27.1l1.417-16.292" transform="translate(24.96 20.625)"/><g opacity=".05" fill="#231F20"><path d="M38.568 31.433H26.114l.413 5.135 12.04.04M38.568 45.17l-.06.016-5.842-1.476-.355-4.25h-5.43l.71 8.205 10.978 3.247"/></g><path fill="url(#c)" d="M.03.066L.68 5.32h13.653l-.726.3v5.175L26.415 5.32l.532-5.254" transform="translate(24.96 20.625)"/><path fill="#231F20" opacity=".05" d="M38.567 20.69H24.99l.65 5.254h12.927"/><g><path fill="#E44D26" d="M3.868 43.422L0 .032h42.508l-3.873 43.383-17.407 4.826"/><path fill="#F16529" d="M21.254 44.552l14.066-3.9L38.63 3.58H21.253"/><path fill="#EBEBEB" d="M21.254 19.672h-7.042l-.486-5.45h7.528v-5.32H7.91l.127 1.427 1.308 14.664h11.91M21.254 33.493l-.023.006-5.926-1.6-.38-4.245h-5.34l.745 8.355 10.9 3.027.024-.007"/><path fill="#FFF" d="M21.236 19.672v5.322h6.552l-.617 6.902-5.934 1.602v5.536l10.91-3.024.08-.9 1.25-14.01.13-1.428H32.17M21.236 8.902v5.321H34.09l.106-1.196.243-2.698.126-1.428"/></g></g></svg>