<svg width="65" height="60" viewBox="0 0 65 60" xmlns="http://www.w3.org/2000/svg"><title>Page 1</title><g fill="none" fill-rule="evenodd"><path d="M4.5 60h60V0h-60v60zm3-3h54V3h-54v54z" fill="#F2D509"/><path d="M48.478 30.937l-1.44-.617c-2.466-1.07-3.535-1.768-3.535-3.495 0-1.398 1.07-2.466 2.755-2.466 1.644 0 2.713.698 3.7 2.465l4.48-2.878c-1.89-3.33-4.52-4.605-8.18-4.605-5.14 0-8.43 3.29-8.43 7.606 0 4.688 2.756 6.908 6.91 8.676l1.437.617c2.632 1.152 4.194 1.85 4.194 3.824 0 1.645-1.522 2.838-3.906 2.838-2.837 0-4.44-1.48-5.675-3.495L36.1 42.12c1.686 3.33 5.14 5.88 10.485 5.88 5.468 0 9.538-2.837 9.538-8.018 0-4.81-2.754-6.948-7.647-9.045M32.977 39.324V19.67H27.22v19.573c0 2.877-1.19 3.617-3.082 3.617-1.974 0-2.796-1.356-3.7-2.96l-4.688 2.837C17.107 45.615 19.78 48 24.385 48c5.098 0 8.592-2.714 8.592-8.676" fill="#F2D509"/><path d="M12 42c0 3.314-2.687 6-6 6s-6-2.686-6-6 2.687-6 6-6 6 2.686 6 6" fill="#3E4942"/></g></svg>