<svg width="61" height="60" viewBox="0 0 61 60" xmlns="http://www.w3.org/2000/svg"><title>jquery</title><g fill="#136BB0" fill-rule="evenodd"><path d="M6.754 11.256c-.155 0 1.216-2.106 1.06-2.106-10.028 9.708-9.158 22.703-4.335 32.046C6.84 47.712 13 53.812 20.32 57.1c3.392 1.522 8.585 2.92 14.034 2.808 11.66-.243 19.83-5.754 24.444-14.736l.27-.702c-4.07 4.103-10.702 6.952-15.905 7.485C21.518 54.173-.75 34.782 6.478 12.155l.276-.9z"/><path d="M60.472 29.032c-3.368 3.574-9.056 6.12-14.502 6.082-12.177-.08-25.86-10.99-24.326-26.198.13-1.31.655-3.363 2.058-6.025-4.037 5.09-6.488 9.287-5.8 16.318.94 9.66 10.067 19.302 19.648 20.584 11.442 1.53 19.975-3.28 22.922-10.76"/><path d="M59.925 16.224c-7.307 4.973-11.84 3.307-13.987 2.676-.473-.136-1.568-.627-2.588-1.24-2.264-1.36-3.382-1.984-5.145-4.547-.97-1.408-1.937-3.645-2.255-4.926-.524-2.12-.38-5.38.617-8.187-3.307 2.952-3.817 8.655-2.708 12.425.14.477.925 2.353 1.35 3.04 2.86 4.6 8.318 8.64 16.842 6.826 2.152-.457 7.026-4.125 7.873-6.066"/></g></svg>