<svg width="53" height="60" viewBox="0 0 53 60" xmlns="http://www.w3.org/2000/svg" xmlns:xlink="http://www.w3.org/1999/xlink"><title>nodejs</title><defs><linearGradient x1="68.14%" y1="17.479%" x2="27.833%" y2="89.719%" id="a"><stop stop-color="#41873F" offset="0%"/><stop stop-color="#418B3D" offset="32.88%"/><stop stop-color="#419637" offset="63.52%"/><stop stop-color="#3FA92D" offset="93.19%"/><stop stop-color="#3FAE2A" offset="100%"/></linearGradient><path d="M27.802.458c-.876-.506-1.957-.506-2.834 0L1.496 14.004C.618 14.51.078 15.444.078 16.46v27.11c0 1.013.54 1.948 1.417 2.456l23.472 13.556c.878.506 1.96.506 2.836 0L51.27 46.026c.877-.508 1.417-1.443 1.417-2.456V16.458c0-1.013-.54-1.948-1.418-2.454L27.8.458z" id="b"/><linearGradient x1="43.24%" y1="55.222%" x2="159.149%" y2="-18.3%" id="d"><stop stop-color="#41873F" offset="13.76%"/><stop stop-color="#54A044" offset="40.32%"/><stop stop-color="#66B848" offset="71.36%"/><stop stop-color="#6CC04A" offset="90.81%"/></linearGradient><path d="M27.802.458c-.876-.506-1.957-.506-2.834 0L1.496 14.004C.618 14.51.078 15.444.078 16.46v27.11c0 1.013.54 1.948 1.417 2.456l23.472 13.556c.878.506 1.96.506 2.836 0L51.27 46.026c.877-.508 1.417-1.443 1.417-2.456V16.458c0-1.013-.54-1.948-1.418-2.454L27.8.458z" id="e"/><linearGradient x1="-4.478%" y1="50%" x2="101.565%" y2="50%" id="g"><stop stop-color="#6CC04A" offset="9.19%"/><stop stop-color="#66B848" offset="28.64%"/><stop stop-color="#54A044" offset="59.68%"/><stop stop-color="#41873F" offset="86.24%"/></linearGradient><linearGradient x1="-103.7%" y1="50%" x2="100.586%" y2="50%" id="h"><stop stop-color="#6CC04A" offset="9.19%"/><stop stop-color="#66B848" offset="28.64%"/><stop stop-color="#54A044" offset="59.68%"/><stop stop-color="#41873F" offset="86.24%"/></linearGradient><linearGradient x1="130.434%" y1="-211.042%" x2="4.308%" y2="201.154%" id="i"><stop stop-color="#41873F" offset="0%"/><stop stop-color="#418B3D" offset="32.88%"/><stop stop-color="#419637" offset="63.52%"/><stop stop-color="#3FA92D" offset="93.19%"/><stop stop-color="#3FAE2A" offset="100%"/></linearGradient></defs><g fill="none" fill-rule="evenodd"><path d="M27.802.458c-.876-.506-1.957-.506-2.834 0L1.496 14.004C.618 14.51.078 15.444.078 16.46v27.11c0 1.013.54 1.948 1.417 2.456l23.472 13.556c.878.506 1.96.506 2.836 0L51.27 46.026c.877-.508 1.417-1.443 1.417-2.456V16.458c0-1.013-.54-1.948-1.418-2.454L27.8.458z" fill="url(#a)"/><g><mask id="c" fill="#fff"><use xlink:href="#b"/></mask><g mask="url(#c)"><path d="M24.92.458L1.4 14.004c-.88.506-1.517 1.44-1.517 2.455v27.11c0 .67.286 1.304.73 1.804L27.044.164c-.71-.174-1.48-.078-2.124.294zM27.172 59.856c.23-.063.45-.153.66-.274l23.47-13.556c.876-.508 1.447-1.443 1.447-2.456V16.458c0-.745-.306-1.447-.83-1.97L27.17 59.857z"/><path d="M51.433 14.004L27.895.458c-.232-.134-.48-.23-.737-.293L.73 45.375c.228.255.494.48.79.65L25.1 59.583c.667.385 1.46.476 2.19.274L52.063 14.49c-.188-.188-.4-.353-.63-.486z" fill="url(#d)" transform="translate(-.117)"/></g></g><g><mask id="f" fill="#fff"><use xlink:href="#e"/></mask><g mask="url(#f)"><path d="M52.75 43.57V16.458c0-1.013-.585-1.948-1.462-2.454L27.764.458c-.27-.156-.557-.258-.857-.318l25.778 44.082c.055-.212.064-.43.064-.652zM1.4 14.004c-.88.506-1.517 1.44-1.517 2.455v27.11c0 1.013.645 1.948 1.522 2.456l23.578 13.556c.554.32 1.195.436 1.813.352L1.54 13.922l-.14.082z"/><path d="M51.446 50.587c.684-.396 1.194-1.053 1.388-1.804L27.03 4.703c-.673-.136-1.388-.033-1.994.317L1.656 18.483l25.257 46.013c.36-.05.714-.166 1.037-.353l23.496-13.556z" fill="url(#g)" transform="translate(-.117 -4.56)"/><path d="M51.446 50.587L27.95 64.143c-.323.187-.676.303-1.037.352l.454.853L53.45 50.24v-.355l-.63-1.102c-.194.75-.69 1.408-1.374 1.804z" fill="url(#h)" transform="translate(-.117 -4.56)"/><path d="M51.446 50.587L27.95 64.143c-.323.187-.676.303-1.037.352l.454.853L53.45 50.24v-.355l-.63-1.102c-.194.75-.69 1.408-1.374 1.804z" fill="url(#i)" transform="translate(-.117 -4.56)"/></g></g></g></svg>