<svg width="50" height="60" viewBox="0 0 50 60" xmlns="http://www.w3.org/2000/svg"><title>python</title><defs><linearGradient x1="-3.314%" y1="3.835%" x2="71.201%" y2="67.949%" id="a"><stop stop-color="#5A9FD4" offset="0%"/><stop stop-color="#306998" offset="100%"/></linearGradient><linearGradient x1="65.002%" y1="71.716%" x2="38.447%" y2="34.353%" id="b"><stop stop-color="#FFD43B" offset="0%"/><stop stop-color="#FFE873" offset="100%"/></linearGradient><radialGradient cx="49.984%" cy="50.022%" fx="49.984%" fy="50.022%" r="40.406%" id="c"><stop stop-color="#B8B8B8" stop-opacity=".498" offset="0%"/><stop stop-color="#7F7F7F" stop-opacity="0" offset="100%"/></radialGradient></defs><g fill="none" fill-rule="evenodd"><path d="M24.468 0c-2.042.01-3.992.184-5.708.488-5.055.893-5.973 2.762-5.973 6.21v4.552h11.946v1.518H8.304c-3.472 0-6.512 2.086-7.463 6.056-1.096 4.55-1.145 7.39 0 12.14.85 3.538 2.878 6.058 6.35 6.058h4.107v-5.458c0-3.943 3.412-7.42 7.463-7.42h11.932c3.322 0 5.973-2.736 5.973-6.07V6.696c0-3.237-2.73-5.67-5.973-6.21-2.052-.34-4.18-.496-6.224-.487zm-6.46 3.662c1.234 0 2.242 1.024 2.242 2.284 0 1.254-1.008 2.27-2.242 2.27-1.238 0-2.24-1.016-2.24-2.27 0-1.26 1.002-2.284 2.24-2.284z" fill="url(#a)"/><path d="M38.155 12.768v5.305c0 4.112-3.487 7.574-7.463 7.574H18.76c-3.268 0-5.973 2.797-5.973 6.07v11.375c0 3.238 2.815 5.142 5.973 6.07 3.78 1.112 7.408 1.313 11.932 0 3.007-.87 5.973-2.623 5.973-6.07V38.54H24.733v-1.518h17.905c3.472 0 4.766-2.422 5.973-6.056 1.248-3.742 1.195-7.34 0-12.14-.857-3.458-2.496-6.058-5.972-6.058h-4.483zm-6.71 28.807c1.237 0 2.24 1.015 2.24 2.27 0 1.258-1.003 2.283-2.24 2.283-1.235 0-2.243-1.025-2.243-2.284 0-1.254 1.008-2.27 2.242-2.27z" fill="url(#b)"/><path d="M40.877 56.896c0 1.714-7.167 3.104-16.01 3.104-8.84 0-16.008-1.39-16.008-3.104 0-1.714 7.167-3.104 16.008-3.104 8.842 0 16.01 1.39 16.01 3.104z" fill="url(#c)" opacity=".444"/></g></svg>