<svg width="68" height="60" viewBox="0 0 68 60" xmlns="http://www.w3.org/2000/svg"><title>Page 1</title><g fill="#00D8FF" fill-rule="evenodd"><path d="M33.64 23.982c-3.317 0-6.007 2.69-6.007 6.008s2.69 6.008 6.008 6.008c3.32 0 6.01-2.69 6.01-6.008s-2.69-6.008-6.01-6.008"/><path d="M53.646 38.174c-.367.122-.744.24-1.128.353-.846-2.684-1.99-5.546-3.41-8.528 1.344-2.897 2.448-5.728 3.274-8.395.687.2 1.356.41 2 .63 3.158 1.088 5.785 2.462 7.598 3.975 1.565 1.306 2.427 2.648 2.427 3.78 0 2.224-3.367 5.734-10.76 8.184m-2.764 5.476c1.46 7.378.05 11.94-1.88 13.057-2.57 1.488-7.65-1.226-11.544-4.576-.56-.48-1.125-.996-1.69-1.542 1.887-2.063 3.78-4.467 5.642-7.164 3.257-.29 6.33-.763 9.107-1.403.136.554.258 1.098.363 1.63M18.22 56.672c-2.575-1.484-2.76-7.24-1.802-12.287.137-.724.302-1.47.49-2.232 2.742.608 5.784 1.048 9.065 1.313 1.86 2.62 3.806 5.024 5.777 7.136-.43.413-.856.806-1.28 1.178-5.663 4.95-10.32 6.006-12.25 4.892m-4.987-18.514c-3.244-1.108-5.957-2.55-7.848-4.17-1.62-1.386-2.51-2.806-2.51-3.998 0-2.97 4.893-6.008 9.744-7.7.736-.256 1.51-.498 2.315-.726.843 2.743 1.948 5.604 3.277 8.492-1.352 2.937-2.47 5.843-3.322 8.622-.57-.164-1.124-.337-1.657-.52m3.253-22.145c-.64-3.276-.768-6.238-.367-8.565.345-2.01 1.075-3.428 2.055-3.995 1.04-.603 2.74-.515 4.78.247 2.37.885 5.03 2.602 7.694 4.966.334.298.67.61 1.008.932-1.958 2.102-3.888 4.492-5.73 7.09-3.162.29-6.188.76-8.98 1.395-.175-.702-.33-1.393-.462-2.07m29.022 7.167c-.666-1.15-1.35-2.274-2.048-3.367 2.143.27 4.2.63 6.137 1.073-.58 1.856-1.302 3.8-2.153 5.792-.61-1.153-1.254-2.32-1.936-3.498M33.672 11.652c1.324 1.435 2.652 3.04 3.96 4.78-1.317-.062-2.65-.095-3.99-.095-1.334 0-2.656.032-3.963.092 1.303-1.72 2.642-3.322 3.992-4.778M19.862 26.68c-.835-1.98-1.55-3.93-2.137-5.82 1.92-.427 3.97-.778 6.096-1.044-.705 1.1-1.393 2.23-2.058 3.384-.666 1.155-1.3 2.316-1.9 3.48m4.025 13.7c-2.21-.245-4.284-.58-6.2-.997.597-1.92 1.33-3.915 2.182-5.938.6 1.162 1.236 2.323 1.903 3.475.684 1.18 1.39 2.335 2.114 3.46m9.87 8.15c-1.36-1.47-2.72-3.1-4.045-4.842 1.28.05 2.592.075 3.93.075 1.372 0 2.73-.032 4.067-.092-1.315 1.788-2.637 3.414-3.953 4.86m13.717-15.2c.904 2.056 1.66 4.038 2.26 5.923-1.95.444-4.056.803-6.278 1.07.695-1.103 1.384-2.244 2.064-3.423.686-1.19 1.338-2.383 1.954-3.57m-4.444 2.135c-1.058 1.834-2.135 3.572-3.223 5.206-1.998.144-4.063.218-6.166.218-2.104 0-4.136-.063-6.084-.188-1.15-1.675-2.256-3.424-3.295-5.22-1.04-1.796-1.998-3.61-2.87-5.416.874-1.82 1.832-3.642 2.862-5.428 1.037-1.798 2.13-3.535 3.26-5.19 2.012-.154 4.067-.234 6.13-.234 2.08 0 4.133.078 6.136.23 1.113 1.643 2.2 3.376 3.243 5.178 1.062 1.833 2.03 3.635 2.902 5.394-.874 1.802-1.84 3.628-2.892 5.45m1.442-31.882c1.913-.703 3.507-.78 4.487-.214 1.042.6 1.814 2.116 2.173 4.264.417 2.497.258 5.66-.46 9.147-.09.437-.192.883-.303 1.336-2.798-.646-5.83-1.124-8.998-1.42-1.853-2.638-3.77-5.032-5.686-7.098.516-.497 1.033-.972 1.548-1.42 2.52-2.192 5.02-3.78 7.238-4.596m19.35 20.42c-2.08-1.734-5.02-3.284-8.503-4.484-.7-.24-1.423-.467-2.167-.682.123-.5.235-.994.335-1.477 1.67-8.104.484-14.42-3.093-16.482-1.757-1.013-4.148-1.01-6.915.006-2.54.935-5.353 2.707-8.133 5.126-.558.485-1.117 1-1.675 1.537-.373-.357-.745-.7-1.115-1.03-6.186-5.493-12.25-7.62-15.822-5.55-1.756 1.015-2.948 3.088-3.45 5.993-.458 2.668-.327 5.99.38 9.605.143.73.31 1.473.497 2.228-.86.245-1.69.506-2.49.784C4.364 22.127 0 26.017 0 29.99c0 2.075 1.216 4.213 3.516 6.182 2.164 1.854 5.202 3.48 8.787 4.706.585.2 1.192.39 1.818.57-.2.815-.377 1.617-.526 2.4-1.444 7.605-.252 13.33 3.19 15.314.91.526 1.99.79 3.21.79 1.182-.002 2.493-.25 3.9-.747 2.687-.95 5.615-2.768 8.467-5.26.467-.41.935-.84 1.404-1.294.607.585 1.214 1.138 1.82 1.66 4.305 3.704 8.442 5.673 11.697 5.673 1.183 0 2.248-.26 3.164-.79 1.795-1.038 3.036-3.162 3.588-6.14.52-2.8.406-6.245-.33-9.96-.116-.59-.25-1.19-.403-1.8.425-.126.843-.256 1.25-.39C62.403 38.3 67.282 34.12 67.282 29.99c0-2.028-1.197-4.098-3.46-5.987"/></g></svg>