<svg width="48" height="60" viewBox="0 0 48 60" xmlns="http://www.w3.org/2000/svg"><title>rails</title><defs><linearGradient x1="0%" y1="50%" y2="50%" id="a"><stop stop-color="#AA2237" offset="7.98%"/><stop stop-color="#B4313D" offset="98.16%"/></linearGradient><linearGradient x1="-.001%" y1="50%" y2="50%" id="b"><stop stop-color="#B83A41" offset="3.68%"/><stop stop-color="#BF4A50" offset="89.57%"/></linearGradient><linearGradient x1="50%" y1="100%" x2="50%" y2=".001%" id="c"><stop stop-color="#A92237" offset="3.68%"/><stop stop-color="#972235" offset="93.87%"/></linearGradient><linearGradient x1="50%" y1="100%" x2="50%" y2="0%" id="d"><stop stop-color="#BC4245" offset="3.68%"/><stop stop-color="#A42136" offset="93.87%"/></linearGradient><linearGradient x1="50%" y1="100%" x2="50%" y2="0%" id="e"><stop stop-color="#CC5057" offset="3.68%"/><stop stop-color="#B73840" offset="89.57%"/></linearGradient><linearGradient x1="-9.586%" y1="69.377%" x2="50.939%" y2="49.695%" id="f"><stop stop-color="#D4575F" offset="7.98%"/><stop stop-color="#B63540" offset="94.48%"/></linearGradient><linearGradient x1="0%" y1="50%" x2="100.001%" y2="50%" id="g"><stop stop-color="#C04B51" offset="0%"/><stop stop-color="#B83A41" offset="100%"/></linearGradient><linearGradient x1=".001%" y1="50%" y2="50%" id="h"><stop stop-color="#BA4044" offset="0%"/><stop stop-color="#B4303C" offset="100%"/></linearGradient><linearGradient x1="-21.032%" y1="39.098%" x2="55.794%" y2="50.792%" id="i"><stop stop-color="#972136" offset="0%"/><stop stop-color="#9F2236" offset="100%"/></linearGradient><linearGradient x1="39.16%" y1="5.686%" x2="129.603%" y2="82.336%" id="j"><stop stop-color="#B22C3A" offset="3.68%"/><stop stop-color="#C04D53" offset="93.87%"/></linearGradient><linearGradient x1="50%" y1="100%" x2="50%" y2="0%" id="k"><stop stop-color="#B22C3A" offset="3.68%"/><stop stop-color="#9B2135" offset="93.87%"/></linearGradient><linearGradient x1=".001%" y1="50.001%" x2="100.001%" y2="50.001%" id="l"><stop stop-color="#FFF" offset="3.68%"/><stop stop-color="#F4E6D9" offset="74.23%"/></linearGradient><linearGradient x1="15.626%" y1="13.54%" x2="97.896%" y2="80.192%" id="m"><stop stop-color="#FFF" offset="3.68%"/><stop stop-color="#F4E6D9" offset="89.57%"/></linearGradient></defs><g fill="none" fill-rule="evenodd"><path d="M47.174 53.22c0 3.746-3.036 6.78-6.778 6.78H0V6.78C0 3.034 3.035 0 6.78 0h40.394v53.22z" fill="#80152A"/><path d="M46.086 52.584c0 3.604-2.705 6.31-6.31 6.31H1.085V7.417c0-3.605 2.706-6.31 6.313-6.31h38.686v51.477z" fill="url(#a)"/><path fill="#8A2034" d="M10.942 1.16l.145 13.114-9.747 3.263"/><path fill="url(#b)" d="M10.942 1.16l.145 13.114 12.862-5.36"/><path fill="#AE2338" d="M5.616 27.21l5.47-12.936-9.746 3.263"/><path fill="url(#c)" d="M5.616 27.21l5.398 13.153-9.78-3.152"/><path fill="#8A2034" d="M10.96 58.804l.054-18.44-9.78-3.153"/><path fill="#8C2033" d="M10.96 58.804l-9.727.003V37.21"/><path fill="url(#d)" d="M10.96 58.804l.054-18.44 12.912 5.31"/><path fill="url(#e)" d="M36.847 1.232l.144 13.116-13.04-5.435"/><path fill="url(#f)" d="M36.847 1.232l.144 13.116 9.06 3.225"/><path fill="url(#g)" d="M42.31 27.363l-5.32-13.015 9.06 3.225"/><path fill="url(#h)" d="M42.31 27.363l-5.354 12.944 9.077-3.24"/><path fill="url(#i)" d="M37.064 58.77l-.108-18.463 9.077-3.24"/><path fill="url(#j)" d="M37.064 58.77l-.108-18.463-13.022 5.364"/><path fill="url(#k)" d="M37.064 58.77l-26.1.037 12.97-13.136"/><path d="M25.27 31.237l2.936 1.345-.3-2.092-2.676-1.44.04 2.187zM3.01 38.243l3.822.435.834-3.552-3.66-.65-.996 3.767zm13.595-24.6l-2.5-1.85-1.74 2.365 2.746 1.712 1.493-2.228zm7.663-6.225l-1.603-2.09-2.255 1.33 1.874 2.04 1.984-1.28zm8.26-1.467l-.516-1.71-2.717-.218.788 1.875 2.446.054zM41.71 8.1l-2.28-1.63v1.06l2.2 1.36.08-.79zm-30.84 15.19l-3.126-1.36-1.06 3.1 3.208 1.194.977-2.933zm15.557-1.4l-.558 1.916 2.01 1.85.503-1.782-1.956-1.984zm12.84-8.57l1.67.08.014-.776-1.74-.353.056 1.047zm-6.95-6.47c-8.037-.39-22.425 7.228-24.49 37.79h19.708c-4.42-11.45-3.907-20.088-.868-25.942 4.42-8.514 10.996-9.078 17.137-5.49.217-.515.516-1.168.516-1.168-3.505-3.37-6.785-4.936-12.002-5.19zm.59 6.345l.734 1.752 1.36-.732-.503-1.617-1.59.597zm-4.456 3.98l1.495 2.054.924-1.346-1.305-2.024-1.114 1.317zm2.284 23.887l-.924-2.242-3.41-.638.897 2.58 3.437.3z" fill="#F7DEE1"/><g fill="#FFF"><path d="M12.805 13.562l2.357-.985-1.058-.784M22.282 8.697l.626-.404L20.7 6.977"/></g><g fill="#D7C4C9"><path d="M4.004 34.476l-.885 3.342 2.096.676 1.614.184.833-3.552M8.94 35.31c-.237 1.336-.446 2.73-.626 4.183l2.7.87L8.94 35.31z"/></g><g fill="#C2C3C6"><path d="M3.12 37.818l-.112.425 2.208.25M11.014 40.363l-2.7-.87c-.2 1.638-.367 3.35-.49 5.144h3.177l.014-4.274z"/></g><path fill="#DDC3C8" d="M11.002 44.637h10.4l-10.388-4.274"/><path d="M40.043 6.906l-.614-.438v1.06l1.477.912-.864-1.534zm1.65 2.932c-1.482-1.05-3.022-1.8-4.775-2.29l.038 3.577c2.152.002 4.37.694 6.537 1.907l-1.8-3.194zm-2.427 3.48l1.67.08.015-.776-1.74-.353.056 1.047z" fill="url(#l)"/><path d="M36.918 7.548c-1.375-.387-2.88-.617-4.6-.7-2.36-.113-5.273.464-8.257 2.11l8.184 3.413c1.502-.854 3.09-1.248 4.713-1.245l-.04-3.577zM32.526 5.95l-.516-1.71-.187-.016-1.956 1.164.214.51 2.446.053zm1.072 6.983l1.154.482-.255-.82-.9.338z" fill="url(#m)"/><path d="M11.195 51.522V50.07c0-.777-.773-2.17-2.187-2.17H4.402v8.713h2.355v-2.537l1.903 2.537h2.826l-2.21-2.936s1.92-.38 1.92-2.155zm-2.318.434H6.74v-1.758h2.137v1.758zm9.15-4.094h-2.14c-1.068 0-2.19.98-2.19 2.265v6.448h2.317v-1.7h2.083v1.7h2.356V50.11c0-1.268-1.14-2.248-2.427-2.248zm.07 4.674h-2.083V50.2h2.083v2.336zm21.564-1.53h-2.27v-.95h3.982v-2.162h-3.995c-1.4 0-2.364 1.113-2.364 2.228v.924c0 1.345 1.21 2.283 2.338 2.283h2.106v1.06h-4.292v2.2h4.238c1.263 0 2.405-.952 2.405-2.106V53.33c0-1.402-1.114-2.324-2.146-2.324zm-9.498-3.126h-2.335v8.723h5.828v-2.338h-3.493V47.88zm-7.2 8.723H25.3V47.88H22.96v8.723z" fill="#FFF"/></g></svg>