<svg width="60" height="60" viewBox="0 0 60 60" xmlns="http://www.w3.org/2000/svg"><title>sql</title><defs><linearGradient x1="0%" y1="50%" y2="50%" id="a"><stop stop-color="#D1D3D4" offset="0%"/><stop stop-color="#939598" offset="13.35%"/><stop stop-color="#BCBEC0" offset="26.23%"/><stop stop-color="#BCBEC0" offset="32.68%"/><stop stop-color="#939598" offset="47.08%"/><stop stop-color="#414042" offset="91.74%"/><stop stop-color="#A7A9AC" offset="100%"/></linearGradient><linearGradient x1="0%" y1="50%" y2="50%" id="b"><stop stop-color="#E6E7E8" offset="0%"/><stop stop-color="#939598" offset="100%"/></linearGradient></defs><g fill="none" fill-rule="evenodd"><g transform="translate(0 30)"><path d="M48.002 9.375C42.987 8.198 36.755 7.5 30 7.5c-6.755 0-12.987.698-18.002 1.875H0v11.25C0 25.803 13.43 30 30 30s30-4.197 30-9.375V9.375H48.002z" fill="url(#a)"/><ellipse fill="url(#b)" cx="30" cy="9.375" rx="30" ry="9.375"/></g><g transform="translate(0 15)"><path d="M48.002 9.375C42.987 8.198 36.755 7.5 30 7.5c-6.755 0-12.987.698-18.002 1.875H0v11.25C0 25.803 13.43 30 30 30s30-4.197 30-9.375V9.375H48.002z" fill="url(#a)"/><ellipse fill="url(#b)" cx="30" cy="9.375" rx="30" ry="9.375"/></g><g><path d="M48.002 9.375C42.987 8.198 36.755 7.5 30 7.5c-6.755 0-12.987.698-18.002 1.875H0v11.25C0 25.803 13.43 30 30 30s30-4.197 30-9.375V9.375H48.002z" fill="url(#a)"/><ellipse fill="url(#b)" cx="30" cy="9.375" rx="30" ry="9.375"/></g></g></svg>